# xmcd CD database file
#
# Track frame offsets:
#	150
#	19537
#	32557
#	55267
#	68112
#	91855
#	106402
#	125507
#	140967
#
# Disc length: 2102 seconds
#
# Revision: 0
# Processed by: cddbd v1.4PL0 Copyright (c) Steve Scherf et al.
# Submitted via: CDex 1.40Beta9
#
DISCID=77083409
DTITLE=Chris Gray - Honestly
DYEAR=1998
DGENRE=Country
TTITLE0=Honestly
TTITLE1=Steppin' On My Heart
TTITLE2=Time To Come Clean
TTITLE3=Honky Tonk Heaven
TTITLE4=Teardrops In My Heart
TTITLE5=One Too Many Heartaches
TTITLE6=Red, White and Blue
TTITLE7=Some Things Never Change
TTITLE8=Jambalaya
EXTD=YEAR: 1998 ID3G: 2
EXTT0=
EXTT1=
EXTT2=
EXTT3=
EXTT4=
EXTT5=
EXTT6=
EXTT7=
EXTT8=
PLAYORDER=
